<?xml version="1.0" encoding="UTF-8"?>
<svg xmlns="http://www.w3.org/2000/svg" version="1.1" viewBox="0 0 3840 12600">
  <!-- Generator: Adobe Illustrator 30.0.0, SVG Export Plug-In . SVG Version: 2.1.1 Build 123)  -->
  <defs>
    <style>
      .st0 {
        fill: #b49c74;
      }

      .st1 {
        fill: #fff3ea;
      }

      .st2 {
        fill: #b6ab9d;
      }

      .st3 {
        fill: #c4b486;
      }

      .st4 {
        fill: #a1977f;
      }

      .st5 {
        fill: #c2b59b;
      }

      .st6 {
        fill: #91af66;
      }
    </style>
  </defs>
  <g id="Layer_1">
    <rect class="st1" x="4.67" y="-.22" width="3831.65" height="12600"/>
  </g>
  <g id="Layer_2">
    <path class="st5" d="M988.49,4.71c27.94,20.32,49.53,38,73.11,64.11,31.16,34.59,29.08,40.63,27.76,90.4-32.52-12.55-63.29-22.46-96.97-30.52,18.12,56.57,31.59,93.75,28.65,152.95-3.11,61.05-6.28,121.97-8.96,183.24-3.37,73.57-4.74,118.56,14.93,187.9,15.16,53.51,58.27,83.51,79.86,132.37,14.76,33.06,29.6,66.22,44.36,99.44,13.53,30.39,23.86,27.76,54.09,36.32,36.78,10.47,87.17,45.25,102.14,85.17,13.58,36.47,27.38,72.95,41.26,109.48,8.07,21.45,13.1,55.2,32.67,65.08,30.03,15.12,38.79,30,58.43,60.14,22.52,34.17-17.88,37.84-34.99,39.86,14.24,13.33,28.71,26.62,43.11,39.5,12.44,11.54,23.26,6.83,35.1,16.61,11.69,10.11,36.54,21.94,37.82,39.6.76,11.44-2.29,52.01,6.15,58.51,30.15,22.46,63.2,43.46,81.95,79.06,9.13,16.97,28.04,11.77,31.02-10.57,2.21-16.67-18.89-36.6-29.36-44.76-9.6-7.31-23.26,16.02-24.77-16.74-.89-21.65-9.3-39.01-16.73-58.91-6.7-18.88-10.52-38.81-24.57-51.49-18.92-16.9-25.12-23.41-34.63-48.18-16.7-42.75-40.91-69.92-69.09-104.64-18.48-23.05-24.41-81.95-33.05-112.28,25.88,12.22,51.72,24.58,77.73,36.67,12.73,5.98,24.41,81.3,28.92,97,8.11,28.09,30.4,38.33,51.47,55.07,24.82,20.03,41.43,43.47,61.34,70.02,4.65,6.11,20.07,20.12,18.29,28.87-1.42,8.39-9.43,26.95-3.06,33.06,28.01,27.11,56.03,53.54,83.99,80.39,17.35,16.68,27.77,30.36,41.14,51.27,11.43,18.07,52.75,63,46.33,85.88-10.03,35.05-24.32,50.13-.22,75.06,25.91,27.31,51.8,54.55,77.83,81.73,10.04,10.37,33.95,14.43,46.14,19.6,39.9,16.61,79.9,33.16,119.77,49.83,49.44,20.58,102.41,59.46,154.29,42.98,22.88-7.51,49.88-27.89,68.93-8.55,29.08,29.88,58.51,59.49,87.62,89.2,33.21,33.58,103.29,36.8,145.51,48.76,46.22,13.45,70.26,45.22,100.42,82.95,4.59-5.35,8.34-11.42,11.43-17.76,4.31-8.83,7.41-18.22,9.91-27.71,2.5-9.51,4.39-19.17,6.09-28.86,1.78-10.18,3.63-20.38,4.8-30.66,1.46-12.82,1.98-25.76,1.03-38.63-.49-6.65-1.37-13.28-2.63-19.83-.48-2.48-.97-4.95-1.74-7.35-.66-2.07-1.47-4.08-2.35-6.06-3.96-8.9-9.18-17.14-13.36-25.93-.03-.06-.06-.12-.09-.18-5.17,2.17-10.46,3.94-16.43,3.1-37.12-5.79-69.79,3.51-103.53-8.62,10.33-9.98,36.02-39.14,28.84-54.94-7.96-17.49,19.25-64.66-4.56-65.76,3.28-6.73,7.77-16.16,12.51-21.78-2.41,12.42,1.07,24.77,9.02,33.13,4.02-19.34,7.32-38.52,14.93-56.92-2.44,1.59-4.78,3.21-7.09,5.04l-2.41-3.45c4.87-3.54,8.5-9.36,13.36-13.56-12.74.39-9.56-5.4-15.19-8.71,10.94-.95,31.68-47.43,38.04-62.9,16.08-39.66-34.81-28.83-52.58-30.98-13.37-1.88-56.47,8.84-69.58,14.3-31.56,12.88-28.94,48.76-37.71,79.52-5.16,18.33-11.73,22.79-25.06,35.2-5.44,4.97,3.58,14.63,0,17.88-4.79,4.45-13.81,6.64-19.57,9.56-5.66,2.6-14.43-12.29-25.47-11.38-15.86,1.5-26.54,3.97-41.46,9.79-15.45,5.72-30.86,11.7-46.3,17.97-6.69,2.47-18.89-17.36-26.63-20.06-37.41-11.22-46.03-36.05-68.98-71.52-38.82-60.73-47.97-112.74-48.33-185.36-.17-28.9,11.54-57.12,18.98-84.62,2.73-9.82,10.98-27.18,10.36-37.74-.95-15.47-21.15-31.27-20.78-46.68.41-50.35,81.59-112.51,115.54-126.81,20.71-9.04,54.83-34.33,76.44-25.98,11.31,4.59,28.18,16.09,40.17,11.83,21.07-7.64,29.08,5.69,47.32,19.86,14.41,11.22,23.79-12.61,34.46,10.24.28-8.78,5.19-12.74,2.74-24.25,11.31,7.31,34.83,13.46,28.67,29.78,8.36,1.79,18.87-3.45,16.07-16.09-.79-4.33-24.58-12.81-29.19-15.28,43.76-21.62-14.79-29.16-30.53-30.75,22.52-18.4,98.83,7.18,103.19-28.25,6.83,40.73,45.98,8.65,69.25,15.31,13.47,3.9,28.91,19.24,40.76,27.34,13.23,9.04,28.3-1.72,42.56-6.63,26.54-8.71,38.7,22.79,61.16,38.78,25.48,18.01,2,55.82,9.46,82.15,2.82-2.63,5.98-5.49,9.03-8.03-5.14,20.45,3.35,30.56,10.8,47.75,6.58,15.34,14.02,28.18,18.92,47.66.49,2.05,25.75,25.42,30.07,31.73,13.77,19.99,23.86,3.74,35.54-8.52,15.67-15.93,10.03-73.18,3.75-95.44-12.13-42.81-24.88-79.29-42.88-119.08-10.3-22.98-17.25-63.52-6.47-86.5,23.2-48.57,30.69-60.37,73.47-86.41,12.41-7.57,20.61-22.69,29.76-34.88,10.12-13.17,29.43-9.49,34.96-17.81,7.61-11.44,18.51-37.65,29.32-44.24,5.57-3.12,15.33,8.39,22.38,4.71,8.89-4.91,17.91-10.24,26.93-15.15-12.98-7.9-24.47,9.91-32.18-9.82,9.08.2,12.66-4.78,19.96-7.31-4.89-2.8-8.75-7.7-13.53-10.57,8.74-1.59,41.82-2.05,43.25-12.06,3.99-24.48-23.56-18.85-39.41-19.08,18.31-6.04,31.45-4.13,35.94-25.65,5.93-26.79-15.97-18.4-20.48-34.69-2.57-8.74,8.89-35.53,4.15-44.8-6.32-11.99-25.89-15.8-33.86-27.99,11.07,2.76,21.24,8.91,30.64,16.45-8.72-40.38-18.31-55.95,13.63-79.84,13.28-9.95.9,19.31-.39,21.78-5.93,14.24-7.06,29.26-9.65,44.92,19.55-5.65,14.79,14.73,24.58,21.07-5.68,14.41-12.61,26.95-12.9,42.91l4.04,1.17c5.36-21.26,23.62-46.1,33.68-67.42,9.92-20.58-17.63-51.17-18.89-73.79,6.04,18.72,32.77,29.29,24.03,45.38,13.75-12.12,67.65-85.53,30.26-89.88,8.96-16.68,35.89-10.99,51.14-12.19,18.53-1.3,30.42-9.43,47.12-18.92-6.64.81-13.47-1.37-20.33-.91,2.71-1.95,5.19-4.26,7.84-6.3-24.16,3.58-44.14,16.19-68.8,19.37,34.57-23.77,52.64-25.94,92.77-29.22,12.57-.85,9.76-26.88,18.25-24.84,17.11,4.26,36.38,14.5,52.62,2.67-3.36-4.71-7.22-10.53-11.46-13.75,1.44,3.35,2.81,7.09,4.37,10.6-54.66,5.98-14.81-69.66-6.31-92.19,5.82-15.6,6.31-25.98,20.2-31.57,20.85-8.03,31.11-10.47,41.95-33.45,2.84,2.99,5.66,6.08,8.5,8.91,9.4-19.31,79.64-3.74,66.63-46.52,8.89,0,23.43,4.45,29.72-3.15,12.47-15.05,12.32,1.2,23.03-6.14,16.61-11.09,41.79-37.81,61.88-32.7-6.02,9.36-13.99,18.85-14.11,28.38,14.77-10.79,36.49-4.45,53.6-3.67-13.36,12.25-22.13,30.07-36.65,17.29-7.19-6.6.41-20.38-15.2-8.71-21.84,16.25-86.72,50.61-59.81,90.27,7.71,2.83,20.07,20.55,32.66,8.12,18.78-18.46,34.39-46.39,51.74-60.66,9.26-7.8,12.19,15.34,23.18,5.3,8.39-7.48,18.5-10.24,28.29-14.28,25.55-10.63,51.08-21.42,76.67-32.15-4.76-4.32-7.22-12.09-12.27-16.22,22.74,4.06,41.33-8.23,61.66-17.52,15.33-6.79-10.33-35.31-28.02-20.87,5.5-19.8,19.56-42.03-5.01-51.33-12.76,20.38-50.32,55.98-31.65,80.81-4.39,2.93-13.37,5.72-18.56,5.72-1.01-5.04-1.89-10.04-2.85-15.28-27.2,20.42-57.83,7.12-89.12-8.55,2.45-1.56,4.78-3.61,7.19-5.53-3.81-.95-7.88-2.65-11.94-4.66-6.43,3.07-13.89,3.09-24.83-2.1-25.72-12.22-61.31-18.66-40.78-58.06,3.91,9.52,7.74,19.02,11.59,28.09,8.26.75,16.57,1.35,24.86,2.06-2.58-7.17-3.23-15.02-.3-23.44-6.58,1.33-14.29-1.66-20.5.72,12-9.43,21.15-23.05,24.39-38.91-13.58-4.45-24.22-1.33-37.07,2.18-1.09.32-20.75-22.07-28.95-24.39,20.17-14.37,34.44,13.01,51.96-2.63,13.67-12.25,50.68-26.33,23.45-45.41,4.51,2.25,9.41,3.06,13.72,5.46-26.35-68.33-126.93-9.95-163.99,8.52-54.09,27.01-83.01,85.76-137.04,112.87,31.65-24.06,46.19-59.42,72.97-89.04,14.67-16.41,29.82-39.82,47.32-52.34,10.69-7.84,49.52-12.03,52.48-26.56,10.72-55.36,52.23-41.22,92.36-43.79,46.1-2.73,87.25-1.85,133.29,3.06C3697.24,18.79,3703.27,34.59,3733.9,0"/>
    <path class="st6" d="M-28.31,3375.41c.29-1.15.58-2.33.86-3.53-1.83-.05-3.63-.07-5.43-.09,1.5,1.23,3.03,2.43,4.57,3.62Z"/>
    <path class="st6" d="M-74.97,3289.97c.37,3.86.85,7.71,1.47,11.54.36-4.34-.28-7.87-1.47-11.54Z"/>
    <path class="st3" d="M8.23,3169.15c19.27,30.93,67.83,22.11,95.53,20.06,59.74-5.04,119.23-9.89,179.06-14.93,36.08-2.89,72.99,16.65,107.71,28.04-7.68,3.59-110.81,40.96-77.11,65.27,11.31,7.99,21.48,15.58,31.21,22.53,11.66,2.53,20.27,7.98,25.76,16.82,19.99,11.73,40.65,19.68,68.32,20.83-1.61-6.49-3.63-12.5-5.5-18.71,82.17,22.76,171.73,35.78,250.22,71.19,38,17.31,92.48,58.31,133.75,52.3,11.6-1.82,23.43-3.36,34.68-5.46,11.63-1.4-2.16-27.48,4.01-32.99,16.48-13.85,54.88-14.51,75.26-20.11-5.44,11.85-24.72,38.4-12.92,45.68,31.98,19.45-9.09,30.84,14.39,56.59,38.69-35.93,45.08-54.68,61.59-109.82,51.74,51.88,98.98,104.97,146.07,162.44,27.24-22.95-9.73-28.22,5.13-46.61,18.55-22.76,36.66-45.06,55.26-67.64,13.56,61.21,170.79-82.81,218.52-48.19-61.76,34.24-123.42,68.06-185.16,102.31,24.88,42.22,194.27-66.06,232.09-83.41,22.81-10.69,61.19,51.96,80.79,30.6,12.05-12.28,86.38-106.88,97.87-101.61,65.51,30.84,131.52,73.19,201.46,86.35,106.47,19.46,212.73,39.38,319.07,58.83,71.87,13.62,144.46,22.58,216.76,32.24,47.96,6.53,192.78,2.47,208.46,48.61,21.39,62.84,160.39,25.47,209.28,52.71,55.24,30.6,52.14,29.67,102.33-12.41,36.33-30.18,73.01-30.18,117.76-38.35,68.45-11.89,141.48-43.81,194.42-94.05,31.05-29.67,53.26-69.18,77.93-105.72,21.61-32.33,72.7-21.27,105.89-23.6,6.6-.42,26.53,2.33,28.89-5.88,3.3-11.43,23.12-55.89,18.94-65.88-8.78-22.2-98.14-47.77-118.85-58.17-30.67-15.07-30.47-67.23-61.74-78.19-38.93-14.19-72.35-19.46-113.04-23.84,18.24-13.62,12.74-29.9-3.96-43.9,6.17-2.52,12.16-5.18,17.91-7.32-15.19-6.91-30.65-13.67-45.88-20.71,32.85-24.31,45.04-41.9,82.79-31.82,43.28,12.03,86.18,2.94,83.99,61.86,48.89-3.17,73.39-8.91,116.65-34.8-3.99-5.36-8.2-10.96-12.01-16.33,56.17,0,91.99-25.24,142.86-53.28-24.01-35.41-69.79-40.91-104.71-53.32,9.13-1.73,17.24-11.52,26.15-14.09-38.82-80.75-118.27-65.59-188.79-55.84-35.41,4.62-40.89-20.81-76.31.56-27.8,16.61-66.66,62.14-82.85,11.05,11.27-7,22.72-13.53,34.34-20.62-25.46-29.53-47.11-36.76-32.52-75.48,18.31-48.89,48.51-17.44,86.69-33.87,37.78-16.28,44.19-52.72,87.18-48.28,51.81,5.22,48.43-8.07,76.71-58.64,14.54-25.57,37.95-49.31,31.49-79.91-7.68-36.62-9.71-98.48-27.46-129.92-16.37-29.35-63.26-54.35-87.58-75.3-9.15-7.28-74.19,42.31-86.55,49.63-8.55-53.09-17.26-106.09-26.15-159.17-24.66,11.62-49.78,22.86-74.71,34.38-20.11,9.14-52.47-29.43-69.38-42.21-49.09-37.79-100.7,6.85-148.47,34.47-14.7-23.32-.52-31.26,14.01-46.37,22.18-23.42,22.72-31.91,28.89-67.32,7.42-42.46,73.46-66.71,60.5-104.73,38.33,28.13,108.85-53.56,127.72-89.01,26.93,48.84,115.2-39.84,145.46-59.48,39.69-25.89,76.09-34.99,111.15-70.68-38.36-9.9-63.04-2.57-98.47,22.02-16.33,11.38-5.44,23.51-27.22,26.08-17.84,2.29-35.14,2.94-52.23,8.4-41.74,12.64-188.57,41.01-192.73,91.3-4.41,55.7-117.43,85.79-153.07,112.94-1.7,1.31-3.27,2.55-4.96,3.85,6.24,30.43-9.32,67.82-42.64,46.73,3.03,27.72-28.71,37.88-55.52,35.15-2.86,2.72-5.7,5.48-8.52,8.26,7.03-1.49,14.15-.9,20.48,3.85-4.39,20.2-19.31,33.27-35.13,42.41-6.62-2.97-13.43-5.96-20.18-8.92-11.46,13.35-22.81,27.45-34.12,43.2,18.22,4.81,36.38,9.33,54.53,14.18-37.06,68.58-59.94,119.38-117.23,164.64-66.15,52.43-98.83,70.16-177.54,86.07,13.14-9.99,25.99-20.48,39.27-30.28-11.47-10.87-22.88-21.79-34.28-32.51,49.74.93,71.7-.75,115.89-25.66,19.11-10.96,41.81-101.7,11.76-111.36,19.56-5.92,28.93-20.85,20.4-41.94-39.09,13.81-216.56,64.15-202.95,112.8,16.53,57.66-5.1,69.79-48.49,74.17-48.89,4.95-61.1-5.18-104.68-33.3-31.48-20.29-73.42-61.3-108.87-69.98-34.01-8.16-74.91,21.79-108.45,8.58-85.57-32.66-152.31-61.39-228.28-116.4-31.05-22.58-71.58-42.64-98.83-71.52-32.85-34.38-57.4-91.72-83.95-132.96-26.86-42.92-35.82-53.51-78.31-74.73-29.8-15.07-60.65-93.87-79.72-124.89-25.68-41.24-62.23,43.25-70.76,37.46-60.67-40.16-66.09-33.96-59.65-113.27,7.33-86.77-103.33-127.5-134.58-205.45-27.37-67.41-36.5-69.6-97.4-97.6-37.27-16.98-73.9-16.98-108.25-42.45l-24.15.23c-6.14,5.45-12.24,10.95-18.24,16.53-9.48,8.81-18.74,17.83-27.67,27.14-9.11,9.5-17.87,19.3-26.18,29.42-4.3,5.24-8.49,10.57-12.55,15.98-2.09,2.78-4.14,5.57-6.16,8.39-1.03,1.43-2.04,2.87-3.05,4.31-.55.79-1.1,1.57-1.65,2.36-.44.64-.85,1.33-1.37,1.92-4.94,5.52-9.82,11.07-14.54,16.75-4.76,5.73-9.41,11.54-14.02,17.38-9.14,11.58-18.12,23.27-27.45,34.72-4.62,5.67-9.33,11.28-14.19,16.78-2.32,2.63-4.66,5.23-6.94,7.88-2.05,2.39-4.15,4.74-6.31,7.05-8.36,8.96-17.51,17.27-27.23,24.94-9.52,7.5-19.58,14.39-29.96,20.8-10.3,6.36-20.93,12.25-31.7,17.87-10.81,5.65-21.77,11.03-32.75,16.39-11.03,5.38-22.07,10.73-33.01,16.27-11.05,5.6-21.98,11.4-32.65,17.61-10.74,6.25-21.21,12.92-31.21,20.18-5.15,3.74-10.25,7.57-15.25,11.48-5.04,3.94-9.97,8.01-14.76,12.22-9.4,8.26-18.29,17.02-26.62,26.24-8.24,9.12-15.91,18.68-22.99,28.62-6.97,9.77-13.36,19.91-19.18,30.32-5.8,10.4-11.03,21.09-15.67,32-4.64,10.91-8.71,22.03-12.22,33.3-3.55,11.38-6.53,22.91-8.97,34.55-2.45,11.66-4.36,23.41-5.75,35.22-1.4,11.86-2.28,23.76-2.67,35.69-.2,5.98-.27,11.97-.23,17.95.05,6.16.32,12.31.48,18.46.36,13.47-.32,26.96-1.92,40.35-1.6,13.39-4.1,26.67-7.36,39.79-3.31,13.3-7.4,26.43-12.12,39.35-4.77,13.05-10.19,25.89-16.12,38.51-6.02,12.82-12.58,25.41-19.58,37.79-6.96,12.32-14.35,24.44-22.09,36.35-7.67,11.81-15.69,23.42-23.99,34.86-2.05,2.83-4.12,5.65-6.21,8.45-1.61,2.17-3.32,4.27-4.99,6.39-3.24,4.1-6.45,8.23-9.65,12.36-6.93,8.92-13.82,17.87-20.85,26.72-7.35,9.27-14.84,18.45-22.61,27.42-7.85,9.07-15.98,17.93-24.54,26.41-8.34,8.26-17.1,16.17-26.45,23.43-8.91,6.92-18.36,13.28-28.46,18.59-4.81,2.53-9.76,4.81-14.86,6.8-5.05,1.97-10.21,3.51-15.5,4.84-10.67,2.67-21.53,4.62-32.45,6.1-11.1,1.5-22.27,2.5-33.46,3.26-11.39.77-22.8,1.27-34.2,1.75"/>
    <path class="st4" d="M1734.78,3664.97c3.54,61.63,7.4,123.39,11.1,185.11.82,18.07-52.89,29.56-65.02,49.03-26.29-39.2-64.29-5.29-94.91,8.63-18.44,8.27-36.94,16.74-55.28,25.09-12.08,5.33-17.36,37.09-30.61,38.11-38.49,3.57-89.11.31-124.83,11.1-18.19,5.4-36.18,20.54-51.94,29.6-12.81,7.33-40.13-.28-55.11-1.83-25.84-2.29-51.24-4.54-77.05-7.12-14.75-1.23-35.68,15.45-47.32,21.34-27.53,13.71-59.35,1.45-91.72,7.4-54.14,10.13-108.24,20.33-162.32,30.19-18,3.48-47.59,14.76-71.7,14-37.15,13.71-74.13,27.75-110.67,42.62,1.19,6.37,3.53,13.93,6.53,24.75,8.19,30.27,7.36,33.83-8.36,59.81-14.43,23.54-28.81,47.13-43.04,70.63-3.37,5.2,10.23,21.43,2.01,23.1-15.93,3.17-22.97,2.16-28.88,14.25-7.61,15.1-14.75,30.15-22.24,45.28-4.47,9.4-20.35-1.6-24.45,5.44-18.28,31.82-16.38,50.15-13.53,86.97.45,7.54,23.22,21.41,29.86,27.13,8.37,6.9,27.41-4.42,36.64,2.54,38.87,30.15,29.07,44.93-2.4,70.03-22.28,17.84-23.12,41.1-39.91,62.08-19.36,23.92-51.05,8.44-65.44,33.84-18.61,32.71-37.36,65.66-56.04,98.43-10.82,19.25-45.57,32.24-65.71,44.79-10.01-13.06-27.42-49.56-45.48-45.33-21.44,4.75-31.42,5.71-41.46,1.95l-82.21,350.94c1.9,9.84,3.92,19.58,6.15,28.76,5.79,23.56,17.44,47.34,25.97,70.57,1.9,5.16-18.2,20.38-22.33,24.46-7.08,7.63-1.73,31.24-1.73,40.84.1,14.79-19.3,23.84-31.81,30.4,4.85,16.12,12.47,31.24,21.48,45.83,11.42,6.99,24,13.39,34.57,20.25,37.25,24.08,27.44,100.39,67.79,115.84,34.21,13.05,68.41,26.24,102.54,39.23,27.5,10.51,25.49,19.88,35.34,43.99,19.05,46.5,26.11,77.6,67.64,112,59.14,48.98,118.32,97.64,177.16,146.48,10.04,8.35,26.11,27.58,39.16,32.37,21.5,7.68,63.27,2.12,85.67,2.87,33.49.93,66.59,1.95,100.12,3.1,20.49.76,48.69,26.28,65.11,36.27,9.4,5.7,42.45,32.73,53.77,30.03,23.98-6.11,47.96-12.07,72.03-18.08,74.75-18.83,149.39-37.68,224.47-56.36,46.07-11.69,63.04-25.39,98.4-53.24,27.93-21.94,56.03-43.97,84.14-65.92,11.35-8.74,35.11-19.14,32.98-33.79-4.52-30.77-9.11-61.59-13.44-92.38-3.43-24.17,7.68-36.99,19.87-58.52,11.73-20.71,19.77-28.24,12.89-51.08-8.62-29.2-17.22-58.5-25.71-87.52-4.56-15.51,1.84-128.86,14.06-134.09,28.57-12.18,57.24-24.25,85.85-36.43,20.08-8.5,15.85-46.62,19.05-64.38,5.06-30.65,7.23-29.07,41.74-41.45,29.85-10.87,31.41-8.96,63.16,2.18,37.1,12.97,74.11,25.91,111.2,38.67,18.25,6.48,36.02,18.21,53.25,11.56,32.14-12.19,64.22-24.05,96.49-36.29,16.69-6.28,43.7-23.13,63.17-22.73,64.01,1.5,127.79,3.08,191.81,4.55,59.2,1.36,106.37-5.33,154.38,35.01,49.94,41.64,111.22,57.49,174.69,81.58,13.2,4.94,35.96,18.73,50.57,15.99,32.72-6.03,65.66-12.32,98.74-18.56,50.42-9.58,96.31-23.26,149.16-18.18,39.5,3.61,78.69,7.37,118.3,11.04,14.28,1.36,60.58,12.44,72.45,5.83,17.55-9.69,38.13-28.19,59.64-30.67,36.23-4.13,72.54-8.48,108.79-12.71,16.54-1.76,51.52-12.09,68.16-6.39,44.03,14.77,43.34,15.58,78.02-5.85,10.63-6.29,49.51-21.48,49.73-33.56-.07-24.98-.03-50.29,0-75.21.09-54.39.08-108.88-.03-163.29.13-15-25.35-43.46-33.5-57.08-14.21-23.86-26.2-50.16-43.25-72.89-32.74-43.05-80.65-82.51-119.59-122.21-12.32-12.39-61.7-20.81-79.06-26.36-32.85-10.79-46.59-8.34-53.84-35.86-4.42-16.61-6.22-63.08-20.17-75.78-15.55-14.57-67.55-23.15-89.48-30.65-18.32-6.2-63.72,8.11-82.49,10.63-28.11,3.7-33.08-17.09-49.33-37.08-18.58-22.71-36.96-45.33-55.43-67.88-14.21-17.5-15.05-55.39-20.44-75.28-9.63-35.89-53.25-79.47-97.67-88-60.02-11.48-130.84-39.21-185.43-19.01-35.21,13.07,8.1-165.78-18.4-135.62-68.09,77.48-108.14,41.25-147.91,54-22.92,7.3,162-162-2.34-180.78-115.14-13.16-279.57-20.88-345-109.78-24.68-33.7-62.84-58.82-96.96-86.55-39.97-32.23-80.73-77.19-129.68-99.68-12.64-5.81-69.56-40.48-81.53-37.51-19.48,4.86-12.08,39.07-11.58,50.44Z"/>
    <path class="st2" d="M1269.57,11992.37c34.82-50.97,69.46-102.25,104.21-153.39,10.38-14.81,59.94,8.87,81.43.86-3.11,47.1,47.69,43.43,80.45,51.1,19.66,4.71,39.48,9.29,59.1,13.88,12.82,3.15,36.39-18.78,47.51-11.5,32.67,20.66,70.76,54.15,105.65,67.41,17.71,6.83,41.2,5.82,59.21,8.26,14.62,2.02,31.62,24.72,42.54,35.09,19.07,17.59,37.82,34.88,56.68,52.68,10.94,9.98,37.7,9.54,50.51,11.98,30.17,5.94,47.89,35.08,77.17,50.13,49.07,25.03,98.15,49.97,146.99,75.18,16.38,8.23,46.71,17.36,65.34,32.68,37.8,11.82,75.66,23.27,113.67,33.8,2.94-5.77,5.71-13.19,9.94-23.59,11.99-28.98,14.82-31.29,43.13-42.27,25.8-9.84,51.59-19.74,77.21-29.67,5.84-2.06,4.98-23.22,12.51-19.52,14.56,7.22,19.51,12.31,31.58,6.34,15.24-7.32,30.09-14.88,45.26-22.29,9.28-4.71,15.15,13.69,22.69,10.62,33.91-14.04,43.59-29.72,63.8-60.63,4.25-6.25-5.32-31.13-7.09-39.72-2.42-10.58-24.41-13.23-27.47-24.38-12.39-47.61,4.4-53.33,44.66-54,28.54-.53,43.41-18.44,69.51-24.81,29.93-7.13,45.59,24.48,72.49,13.14,34.71-14.55,69.68-29.2,104.48-43.75,20.32-8.64,55.77,2.28,79.38,4.63-.04,16.45-8.54,55.99,8.35,63.67,19.88,9.33,28.38,14.66,34.03,23.76l279.34-227.78c4.5-8.95,8.85-17.9,12.69-26.54,9.79-22.19,15.08-48.15,22.51-71.75,1.64-5.25,26.86-5.03,32.62-5.74,10.26-1.72,20.44-23.69,26.3-31.29,8.95-11.77,29.84-7.1,43.75-4.66,6-15.73,9.19-32.36,10.97-49.41-4.78-12.51-10.84-25.25-15.02-37.14-14.8-41.81,39.55-96.27,17.02-133.14-19.13-31.22-38.17-62.55-57.27-93.67-15.37-25.12-8.06-31.31-1.13-56.41,13.3-48.45,26.69-77.4,14.79-130-16.94-74.9-34.11-149.57-50.9-224.17-2.85-12.74-3.84-37.78-11.26-49.54-12.34-19.21-48.81-40.3-66.1-54.57-25.95-21.18-51.56-42.2-77.4-63.58-15.76-13.11-22.53-50.54-29.43-68.47-3.96-10.25-13.64-51.84-24.25-56.61-22.73-9.8-45.35-19.72-68.09-29.66-70.71-30.71-141.33-61.35-212.2-92.38-43.63-18.87-65.43-18.37-110.43-17.9-35.51.33-71.22.63-106.88.85-14.32,0-39.49-6.27-46.75,6.63-15.21,27.13-30.38,54.35-45.74,81.37-12.04,21.24-28.66,24.61-51.46,34.22-21.94,9.24-32.9,10.3-41.39,32.59-11,28.39-22.07,56.85-33.06,85.01-5.86,15.07-80.12,100.94-92.99,97.62-30.07-7.8-60.14-15.73-90.24-23.55-21.1-5.52-41.01,27.25-54.39,39.36-22.72,21.19-23.47,18.61-58.36,7.35-30.28-9.61-30.35-12.07-48.7-40.28-21.47-32.92-42.89-65.76-64.48-98.51-10.5-16.27-17.41-36.41-35.12-41.66-32.89-9.96-65.55-20.15-98.58-30.16-17.05-5.22-48.73-8.36-63.91-20.55-49.78-40.26-99.34-80.45-149.15-120.69-46.06-37.21-87.51-60.71-100.9-121.97-14.13-63.47-53-113.43-88.57-171.25-7.44-11.97-17.05-36.79-30.29-43.54-29.6-15.2-59.53-30.33-89.53-45.57-45.79-23.19-90.48-40.37-129.24-76.65-29.08-26.97-57.83-53.88-86.96-80.96-10.48-9.79-40.39-46.84-53.82-48.84-19.82-3.04-47.41-.94-65.96-12.12-31.22-18.84-62.63-37.56-93.93-56.34-14.17-8.7-48.19-21.88-57.89-36.55-25.86-38.58-24.82-38.79-65.37-42.99-12.26-1.51-52.32-13.21-59.88-3.78-15.19,19.83-30.67,39.85-45.92,59.57-33.27,43.03-66.53,86.19-99.66,129.36-9.26,11.8-6.45,49.9-8.31,65.65-3.32,27.57-9.87,55.72-10.24,84.13-.34,54.09,13.51,114.59,20.12,169.8,2.2,17.33,36.16,54.15,46.53,69.14,19.44,28.6,31.81,35.04,20.75,61.27-6.63,15.85-33.59,53.76-30.28,72.33,3.42,21.03,39.37,59.58,52.16,78.9,10.73,16.09,55.42,32.47,71.83,41.93,24.52,14.23,15.77,33.73,16.44,59.49.85,29.33,1.61,58.47,2.47,87.6.57,22.53-21.89,53.06-29.76,72.1-14.28,34.31-6.34,95.46,23.64,129.32,40.53,45.74,79.7,110.93,135.27,128.25,35.86,11.15-107.62,126.36-68.22,118.65,101.23-19.8,110.84,33.35,150.12,47.53,22.61,8.2-227.21,29.42-108.5,144.62,83.16,80.71,208.69,187.2,206.24,297.56-1.02,41.75,13.87,84.95,23.97,127.74,11.98,49.93,16.83,110.42,41.86,158.12,6.46,12.32,30.39,74.53,41.68,79.48,18.39,8.04,33.42-23.57,39.96-32.88Z"/>
    <path class="st0" d="M985.83,7835.47c58.96,3.08,46.54,82.17,114.38,56.83,7.54-2.72,4.85-62.07,28.09-46.3,28.44,19.42,56.53,37.97,84.61,56.68,51.25,34.59,71.73,60.88,127.62,51.68,22.21-3.58,165.19-42.08,178.63-25.63,35.5,43.44,64.24,101.9,118.88,111.54,76.72,13.64,88.76,34.18,144.21,95.08,35.22,38.44,102.03,19.39,110.62-25.27,89,79.81,171.19,127.82,275.92,184.27,34.72-45.75-26.41-127.22-47.22-174.99-23.25-51.3-73.82-94.28-111.16-136.45-45.12-51.17-151-242.49-57.49-274.9,32.76-11.76,91.92,15.29,131.64,9.76,71.51-10.83,142.78-21.61,214.22-32.09,65.88-9.9,59.72,21.13,91.3,85.88,25.76,51.99,19.78,94.14,18.49,150.21,81.48,7.17,94.72.43,159.35-42.62,49.82-33.25,103.77-63.98,149.1-104.19-19.46-20.65-38.91-41.02-58.83-61.44,58.34-35.04,127.81-45.28,121.54-120.88-6.06-74.55-34.33-125.05-68.04-195.03,64.4-12.77,128.64-25.2,192.97-38.49,23.35-4.65,27.6-112.62,31.57-134.03,22.02-121.91,76.16-255.57,34.81-380.42-21.76-63.8-53.89-103.9-16.23-153.42,50.15-64.9,100.5-130.54,150.88-195.34,34.25-44.73,42.45-81.81,57.88-139.37,18.63-71.32,17.29-91.05-7.15-166.3,23.7,13.09,46.83,25.57,70.04,38.34-31.16-101.66-64.47-181.87-158.67-233.86-55.86-31.26-56.59-42.01-80.19-103.22-17.02-42.61-58.82-49.82-98.86-69.37-97.39-47.38-182.71-101.23-264.91-176.68-30.68-28.5-125.69-89.38-137.67-127.06-4.37-13.52,32.73-109.41-22.42-108-46,.75-109.99-12.8-145.56,16.27-35,28.61-87.11,51.23-92.58,100.15-7.59,71.56-6.39,94.2-53.23,140.75-33.35,33.36-65.48,68.73-100.79,99.61-27.12,23.67-54.29,46.74-81.26,70.51-8.53,6.97,10.9,57.01,13.63,69.22,10.63,42.01-34.49,99.8-51.25,135.89-18.75,40.32-81.45,52.35-95.39,91.18-10.98,30.67-21.53,105.72-48.32,122.59-95.82,59.21-180.3,113.03-287.82,149.05-68.15,22.59-79.48,15.84-151.88-12.89-47.39-18.8-91.29-35.34-140.35-47.31-3.2,90.37-5.06,167.45,11.53,257.52-74.72-48.02-74.48-134.18-86.08-215.69-64.35,32.34-36.28,61.32-19.17,134.8-30.16-30.65-87.43-119.36-121.14-91.8-30.1,24.6-103.07-20.4-131.01-42.73-95.97-77.26-183.4-47.6-272.55,4.22-57.73,33.31-70.24,32.77-82.05,99.95-13.63,76.13-24.7,55.45-100.52,40.36-36.28-7.04-70.3,49.84-73.55,82.23-7.04,73.9-9.9,82.7-63.27,128.91-89.01,77.92,21.27,196.05,70.86,286.08,43.16,78.2,9.84,188.74,47.98,269.6,45.61,95.52,82.99,225.69,147.7,309.97,61.42,80.43,162.25,148.26,237.02,216.28,63.74,3.48,127.15,6.81,191.13,10.4Z"/>
    <path class="st3" d="M1003.71,9501.07c27.67,8.77,95.57,22.16,118.42,40.17,58.45,46.32,136.73,95.31,172.78,148.18,24.53,35.13,48.64,70.39,72.97,105.92,6.63,9.68,90.19,34.69,103.83,39.89,30.59,11.41,76.11,36.37,100.15,29.51,30.06-8.52,60.2-17.02,90.13-25.66,30.05,48.86,59.86,97.74,89.77,146.64,46.05-13.14,67.81-25.65,129.43-12.6,46.88,9.81,84.53,69.9,113.24,100.55,31.8,33.93,34.51,69.28,48.5,103.66,15.57,38.29,32.82,71.09,60.89,109.58,13.36-2.24,26.99-4.39,40.27-6.7-4.26,29.39-17.02,59.01-6.96,92.49,12.74,41.86,25.34,83.79,38.04,125.74,35.46-21.52,85.88-39.94,111.54-68.12,18.75-20.34,51.46-65.44,26.52-98.13-16.15-20.94-43.51-43.64-30.58-57.78,14.83-17.27,30.21-34.36,45.18-51.6,17.32-19.52-10.86-89.58-15.34-118.88,8.99,8.67,95.87,104.03,112.28,74.61,14.38-25.59,18.38-54.81,58-62.56,3.1,45.79,6.44,91.6,9.74,137.52,83.64-44.89,164.81-81.42,217.9-146.8,59.36-73.1,123-138.78,152.07-227.11,10.52-31.63,20.83-63.26,31.16-94.74,3.52-10.72,17.92-29.13,13.88-42.56-6.21-20.68-57.91-48.65-43.44-64.46,18.35-20.32,36.73-40.39,55.08-60.89,22.28-24.65,63.12-47.2,56.73-84.13-9.9-54.55-19.69-109.1-29.55-163.64-57.75,18.31-106.93,45.72-184.35,37.77,73.62-47.58,136.48-94.55,193.94-153.29,17.48-17.94,15.06-57.74,21.25-81.29,13.45-53.54,26.81-107.01,40.43-160.49,5.8-23.33,26.54-54.52,19.86-82.18-9.23-38.74-18.85-77.64-28.09-116.37-23.03-95.59-46.19-191.28-69.24-286.57-56.68,2.93-64.53,36.6-87.9,68.2-27.04-22.62-54.16-45.41-81.41-68.13-30.27-25.18-22.03-24.98-12.98-47.31,12.64-32.93,14.32-63.38,15.53-100.95,1.01-48.53,2.07-97.16,3.3-145.71.2-11.59-38.22-30.48-53.12-40.24-10.97-7.39-49.1-3.62-59.87-3.97-32.01-1.18-91.16-11.8-115.59-2.95-33.47,12.18-67.04,24.19-100.31,36.54-16.93,6-78.55,15.95-82.32,30.68-7.7,28.67-14.96,57.54-22.57,86.22-13.42,51.79-49.08,85.3-85.09,125.87-18.3,20.86-37.04,41.41-55.09,62.09-9.02,10.19-92.39-.45-112.18-.75-83.1-.89-171.63-22.97-262.14-40.51-48.87-9.41-54.81-7.7-94.42-38.72-37.22-29.16-55.3-55.98-96.24-53.37-42.33,2.82-72.29,17.65-116.41-13-43.23-30.09-62.96-54.63-106.9-52.36-55.37,2.81-53.88,1.46-54.49,41.87-.33,29.33-.77,58.67-1.13,88.16-28.12-16.72-55.67-33.08-83.43-49.6-9.42-5.38-7.35-32.15-7.92-38.33-3.2-21.99-6.74-44.12-9.8-66.07-.62-4.92-38.5-24.18-44.65-27.71-37.08-22.22-97.33-68.4-138.13-78.57-60.7-14.97-121.18-29.85-181.91-44.86-98.09-24.39-187.32-25.77-280.14-33.5-55.18-4.67-110.12-9.43-165.15-13.91-27.42-2.37-44.37,21.18-59.64,31.14-31.77,20.45-63.25,40.72-94.67,61.28-7.78,5-29,44.32-21.88,49.51,81.85,62.9,163.95,125.82,246.22,189,65.95,50.43,129.33,101.41,192.82,153.09,34.54,27.97,35.78,27.33,36.68,55.19.97,36.7,1.94,73.39,2.95,110.12.68,22.76-7.42,52.12,2.25,77.2,11.25,28.27,52.95,69.29,74.82,97.96,19.27,25.46,33.3,38.41,31.89,60.04-1.42,33.18-3.14,66.35-4.89,99.37-2.51,47.57-19.56,98.95-1.72,152.05,21.92,66.19,43.87,132.21,66.15,198.38,31.19,41.66,28.7,42.48,85.05,60.87Z"/>
  </g>
</svg>